<?xml version="1.0" encoding="UTF-8"?>
<svg width="512px" height="512px" viewBox="0 0 512 512" version="1.1" xmlns="http://www.w3.org/2000/svg" xmlns:xlink="http://www.w3.org/1999/xlink">
    <!-- Generator: Sketch 63.1 (92452) - https://sketch.com -->
    <title>user (1)</title>
    <desc>Created with Sketch.</desc>
    <g id="Page-1" stroke="none" stroke-width="1" fill="none" fill-rule="evenodd">
        <g id="user-(1)" fill-rule="nonzero">
            <circle id="Oval" fill="#ECEFF1" cx="256" cy="256" r="256"></circle>
            <path d="M442.272,405.696 C431.136,396.896 417.568,390.56 402.848,387.488 L332.672,373.408 C325.312,372 320,365.408 320,357.728 L320,341.632 C324.512,335.296 328.768,326.88 333.216,318.08 C336.672,311.264 341.888,300.992 344.48,298.336 C358.688,284.064 372.416,268.032 376.672,247.36 C380.64,227.968 376.736,217.792 372.16,209.6 C372.16,189.152 371.52,163.552 366.688,144.928 C366.112,119.712 361.536,105.536 350.016,93.12 C341.888,84.32 329.92,82.272 320.288,80.64 C316.512,80 311.296,79.104 309.376,78.08 C292.32,68.864 275.456,64.352 255.328,64 C213.184,65.728 161.376,92.544 144.032,140.352 C138.656,154.912 139.2,178.816 139.648,198.016 L139.232,209.568 C135.104,217.632 131.04,227.872 135.04,247.328 C139.264,268.032 152.992,284.096 167.456,298.56 C169.824,300.992 175.168,311.36 178.688,318.208 C183.2,326.976 187.488,335.36 192,341.664 L192,357.76 C192,365.408 186.656,372 179.264,373.44 L109.024,387.52 C94.4,390.624 80.832,396.896 69.728,405.696 C66.272,408.48 64.096,412.544 63.744,416.96 C63.392,421.376 64.864,425.696 67.84,428.992 C115.648,481.728 184.224,512 256,512 C327.776,512 396.384,481.76 444.16,428.992 C447.136,425.696 448.64,421.344 448.256,416.928 C447.904,412.512 445.728,408.448 442.272,405.696 Z" id="Path" fill="#BCC4CD"></path>
        </g>
    </g>
</svg>